PathFileType	4	(X/Y/Z)	C:/Users/opensim2020/Desktop/walking_exp_matlab/subject06_walking13_straight_01.trc																																																																																																																																																				
DataRate	CameraRate	NumFrames	NumMarkers	Units	OrigDataRate	OrigDataStartFrame	OrigNumFrames																																																																																																																																																
100	100	8	50	mm	100	991	163																																																																																																																																																
Frame#	Time	LFHD			RFHD			LBHD			RBHD			C7			T10			CLAV			STRN			RBAK			LSHO			LUPA			LELB			LFRM			LWRA			LWRB			LFIN			RSHO			RUPA			RELB			RFRM			RWRA			RWRB			RFIN			LASI			RASI			LPSI			RPSI			LTHI			LKNE			LTIB			LANK			LHEE			LTOE			RTHI			RKNE			RTIB			RANK			RHEE			RTOE			*39			*40			*41			*42			*43			*44			*45			*46			*47			*48			*49		
		X1	Y1	Z1	X2	Y2	Z2	X3	Y3	Z3	X4	Y4	Z4	X5	Y5	Z5	X6	Y6	Z6	X7	Y7	Z7	X8	Y8	Z8	X9	Y9	Z9	X10	Y10	Z10	X11	Y11	Z11	X12	Y12	Z12	X13	Y13	Z13	X14	Y14	Z14	X15	Y15	Z15	X16	Y16	Z16	X17	Y17	Z17	X18	Y18	Z18	X19	Y19	Z19	X20	Y20	Z20	X21	Y21	Z21	X22	Y22	Z22	X23	Y23	Z23	X24	Y24	Z24	X25	Y25	Z25	X26	Y26	Z26	X27	Y27	Z27	X28	Y28	Z28	X29	Y29	Z29	X30	Y30	Z30	X31	Y31	Z31	X32	Y32	Z32	X33	Y33	Z33	X34	Y34	Z34	X35	Y35	Z35	X36	Y36	Z36	X37	Y37	Z37	X38	Y38	Z38	X39	Y39	Z39	X40	Y40	Z40	X41	Y41	Z41	X42	Y42	Z42	X43	Y43	Z43	X44	Y44	Z44	X45	Y45	Z45	X46	Y46	Z46	X47	Y47	Z47	X48	Y48	Z48	X49	Y49	Z49	X50	Y50	Z50
																																																																																																																																																							
143	1.42	657.26508	1642.14636	-1055.11841	640.56665	1627.92664	-925.09283	519.92719	1604.6853	-1073.8269	505.00659	1595.10193	-945.62183	498.61191	1435.73425	-1017.50977	471.51004	1102.67188	-1008.02521	610.70898	1359.06348	-1010.12195	656.37347	1187.92871	-1010.05115	424.68939	1261.35522	-938.2608	559.97797	1388.27026	-1175.18616	521.51459	1191.42859	-1244.58752	487.58026	1083.50562	-1250.99561	471.71301	933.32404	-1268.57349	488.12994	807.73004	-1215.54163	438.14688	819.25153	-1264.87866	447.49646	728.26349	-1253.94592	555.12268	1391.09692	-852.19843	539.51575	1193.50427	-758.69745	576.73273	1078.9906	-738.89185	646.91315	983.92596	-724.58832	768.00549	902.58826	-765.5589	726.05707	872.36127	-724.47272	800.08685	836.32715	-722.26935	669.72406	959.53009	-1098.69421	645.00366	955.67828	-883.61359	507.45761	973.33942	-1092.98804	497.38	970.86298	-925.45544	672.69177	644.91815	-1168.17358	715.31702	489.70651	-1136.85547	723.87061	231.49246	-1127.55847	739.73041	63.17135	-1080.35205	697.90851	50.34484	-1035.50598	883.95361	37.71563	-1069.85815	581.19897	614.50061	-830.88214	577.67242	486.08527	-843.41669	381.47604	307.46561	-860.22296	243.65849	187.43521	-909.22992	208.31279	205.26305	-956.06628	297.73886	40.64685	-917.76825	556.06201	1691.08691	-1006.76886	NaN	NaN	NaN	NaN	NaN	NaN	NaN	NaN	NaN	NaN	NaN	NaN	NaN	NaN	NaN	NaN	NaN	NaN	NaN	NaN	NaN	NaN	NaN	NaN	NaN	NaN	NaN	NaN	NaN	NaN
144	1.43	668.7265	1643.82227	-1055.91357	651.69971	1629.57886	-925.8902	531.58276	1606.01672	-1075.05676	516.25299	1596.43298	-946.88245	510.29111	1437.02783	-1018.94714	482.77774	1104.36938	-1008.99347	622.40979	1360.54968	-1011.02588	667.99786	1189.31177	-1010.9118	436.08783	1262.79822	-939.89771	572.49719	1389.94202	-1176.25305	536.36584	1192.40051	-1245.95605	503.97498	1084.22717	-1253.04736	490.29617	933.7514	-1270.69177	508.04477	808.45319	-1218.02576	458.47278	819.3056	-1267.67041	468.91754	728.48187	-1256.87573	566.09454	1392.70215	-853.43347	549.40057	1194.93506	-760.36792	584.92053	1079.96045	-741.22754	653.43176	983.56116	-726.28259	773.18024	899.79474	-766.34216	729.92859	870.23737	-725.36914	803.66418	832.98627	-722.60278	680.7442	961.23901	-1100.4679	656.76563	957.07697	-884.98431	518.13568	974.78876	-1093.19995	508.91095	971.48547	-925.73871	683.2323	646.23358	-1168.58044	724.67926	490.64844	-1136.77026	728.62561	231.97548	-1127.17932	740.30481	63.46768	-1079.98206	698.30994	50.66668	-1035.25439	884.56696	37.40295	-1070.32349	599.75769	614.59741	-832.23621	600.2868	486.33466	-844.64624	403.32724	312.04425	-860.36633	261.99631	196.92369	-908.75647	228.23814	217.21568	-955.61273	304.875	44.56197	-917.15015	567.28058	1692.50342	-1007.89893	NaN	NaN	NaN	NaN	NaN	NaN	NaN	NaN	NaN	NaN	NaN	NaN	NaN	NaN	NaN	NaN	NaN	NaN	NaN	NaN	NaN	NaN	NaN	NaN	NaN	NaN	NaN	NaN	NaN	NaN
145	1.44	680.22247	1645.57007	-1056.59583	662.7356	1631.25134	-926.69659	543.19354	1607.47083	-1076.21326	527.57849	1597.91077	-948.04688	522.09229	1438.76208	-1020.30414	494.05789	1106.12183	-1010.08929	633.92896	1362.18982	-1011.80316	679.32526	1190.74561	-1011.67712	447.34161	1264.56018	-941.41492	584.92834	1391.65796	-1177.23035	551.71613	1193.62695	-1247.76196	520.65961	1084.95447	-1255.12012	509.41187	934.37427	-1273.10303	528.50549	809.3042	-1220.4126	479.46652	819.61371	-1270.82166	491.24362	728.82538	-1259.85095	576.98413	1394.3833	-854.56842	559.03564	1196.33203	-762.13324	593.00189	1080.95129	-743.44458	659.58307	983.04449	-727.94061	778.09479	896.7821	-766.85272	734.04865	868.19159	-726.55164	806.50031	829.08685	-723.04083	691.40918	962.78406	-1102.19116	667.88574	958.47278	-886.04236	528.50171	976.08301	-1093.30347	519.82556	972.50476	-925.74872	692.34271	646.98334	-1168.82178	732.82043	491.12021	-1136.79358	731.98022	232.26984	-1126.83752	740.5495	63.62584	-1079.72473	698.42053	50.90779	-1035.13367	884.80286	37.13786	-1070.29785	618.41663	615.09167	-834.13501	623.35205	487.02759	-846.76581	425.9534	316.53445	-860.15131	281.87524	204.9545	-908.08374	249.8856	227.62718	-954.91071	313.2673	48.278	-916.35498	578.56488	1694.09033	-1008.93481	NaN	NaN	NaN	NaN	NaN	NaN	NaN	NaN	NaN	NaN	NaN	NaN	NaN	NaN	NaN	NaN	NaN	NaN	NaN	NaN	NaN	NaN	NaN	NaN	NaN	NaN	NaN	NaN	NaN	NaN
146	1.45	691.71661	1647.4447	-1057.35413	673.89966	1633.1261	-927.40649	554.78369	1609.08801	-1077.23474	538.80096	1599.52808	-949.18774	533.81659	1440.65137	-1021.5672	505.08569	1108.14258	-1011.19043	645.38226	1363.90747	-1012.57715	690.42212	1192.24573	-1012.37708	458.34088	1266.68579	-942.87109	597.33606	1393.41626	-1178.12439	566.7207	1194.81494	-1249.3324	537.32776	1085.72375	-1257.27197	529.18848	935.33289	-1276.06311	549.56653	810.24237	-1222.70593	500.93158	819.81085	-1273.68506	514.3526	729.25775	-1262.89221	587.83246	1396.07837	-855.57147	568.37451	1197.77783	-764.04919	600.97229	1081.92395	-745.4176	665.48932	982.46387	-729.6225	782.48871	893.45306	-767.4939	737.27551	866.03882	-727.44958	808.77289	825.06952	-723.47986	701.65668	964.26453	-1103.70825	678.87927	960.18842	-886.94055	538.66907	977.32355	-1093.50928	530.63281	973.60223	-925.83746	700.2207	647.48834	-1168.93713	739.69696	491.29959	-1136.98218	734.00067	232.59227	-1126.67749	740.72577	63.80138	-1079.52612	698.35907	51.0592	-1035.01208	884.90442	36.81929	-1069.78027	636.75085	615.9035	-836.33203	646.23956	488.40036	-849.3974	450.06741	319.82022	-860.28485	303.19717	211.51535	-907.38806	273.05972	236.60817	-954.23761	323.67618	52.16978	-916.6554	589.82086	1695.8219	-1009.94952	NaN	NaN	NaN	NaN	NaN	NaN	NaN	NaN	NaN	NaN	NaN	NaN	NaN	NaN	NaN	NaN	NaN	NaN	NaN	NaN	NaN	NaN	NaN	NaN	NaN	NaN	NaN	NaN	NaN	NaN
147	1.46	703.17627	1649.32434	-1057.88379	684.91443	1634.87695	-928.1322	566.33337	1610.80847	-1078.24548	550.01874	1601.21216	-950.24457	545.40887	1442.61389	-1022.68134	515.94275	1110.24683	-1012.30664	656.67725	1365.67529	-1013.2301	701.40051	1193.84875	-1013.05951	469.17606	1269.08862	-944.13849	609.69489	1395.26331	-1178.99695	581.72211	1196.10913	-1250.98621	554.17957	1086.59985	-1259.48047	548.69861	935.76807	-1277.97314	571.22931	811.35699	-1225.01465	523.04883	820.23846	-1276.75952	538.16693	729.87921	-1265.9364	598.70984	1397.85767	-856.53931	578.44061	1199.26501	-765.32129	608.87415	1082.88501	-747.28546	671.16937	981.7489	-731.25195	786.44727	889.93121	-768.20691	740.13269	863.698	-728.57355	810.49066	820.79749	-724.02802	711.7403	965.71381	-1104.90344	689.25049	961.8609	-887.47687	548.80725	978.6098	-1093.78601	541.18475	974.9162	-926.09235	707.68793	648.13507	-1169.02527	745.57324	491.34927	-1137.28687	735.6712	233.12357	-1126.53674	740.88525	64.00046	-1079.28369	698.43054	51.23561	-1034.8175	885.05707	36.68956	-1069.71216	654.91571	617.04913	-838.60437	668.81055	490.37152	-852.39807	474.72504	322.16312	-860.41388	325.33682	217.08485	-906.85712	296.69464	243.7001	-953.53265	337.47574	56.15945	-916.75671	601.03638	1697.58105	-1010.82257	NaN	NaN	NaN	NaN	NaN	NaN	NaN	NaN	NaN	NaN	NaN	NaN	NaN	NaN	NaN	NaN	NaN	NaN	NaN	NaN	NaN	NaN	NaN	NaN	NaN	NaN	NaN	NaN	NaN	NaN
148	1.47	714.57794	1651.15381	-1058.4209	695.99878	1636.72607	-928.81744	577.82605	1612.51135	-1079.17139	561.15564	1602.94177	-951.23706	557.22931	1444.54773	-1024.18274	526.60071	1112.328	-1013.38531	667.84601	1367.44006	-1013.836	712.2998	1195.47986	-1013.62189	479.95819	1271.33582	-945.55499	621.84503	1397.05603	-1179.73669	596.78912	1197.3634	-1252.2804	571.17139	1087.51392	-1261.61023	568.92981	936.65417	-1280.33875	593.30768	812.65302	-1227.23474	545.49377	820.37848	-1279.06787	562.72266	730.73352	-1268.8783	609.51495	1399.61377	-857.40759	587.47736	1200.8385	-766.89362	616.71301	1083.82434	-749.06732	676.74225	981.10767	-732.86829	789.87903	886.26752	-768.96265	742.25775	860.97278	-730.18695	811.66455	816.37207	-724.65967	721.68048	967.18549	-1105.81274	699.62	963.70959	-887.85828	558.91089	979.97467	-1094.31409	551.61926	976.45135	-926.62225	713.89972	648.28693	-1168.85632	750.57953	491.29593	-1137.77698	737.21997	233.48824	-1126.2218	740.95038	64.18775	-1078.99512	698.40118	51.36316	-1034.51941	885.12292	36.55195	-1069.74146	672.3421	618.86139	-841.22156	690.67676	492.90991	-855.4693	499.73697	323.39468	-861.28955	347.36429	221.69051	-906.59705	318.48007	248.63319	-953.12463	356.69415	60.75666	-915.53308	612.35034	1699.3374	-1011.66968	NaN	NaN	NaN	NaN	NaN	NaN	NaN	NaN	NaN	NaN	NaN	NaN	NaN	NaN	NaN	NaN	NaN	NaN	NaN	NaN	NaN	NaN	NaN	NaN	NaN	NaN	NaN	NaN	NaN	NaN
149	1.48	725.94531	1652.83069	-1059.08398	706.97028	1638.24451	-929.51074	589.25635	1614.151	-1080.04333	572.25726	1604.59473	-952.15741	568.28967	1446.27893	-1024.99207	537.20178	1114.34717	-1014.43121	678.94	1369.13062	-1014.39404	723.06067	1197.05762	-1014.14532	490.70856	1273.45776	-947.03455	633.82855	1398.83289	-1180.41602	611.89948	1198.73169	-1253.67456	588.29895	1088.52747	-1263.70203	589.41406	937.67047	-1282.5835	615.76514	814.12299	-1229.33337	568.35742	820.99573	-1281.83142	587.81854	731.76971	-1271.72998	620.1748	1401.32031	-858.23859	597.0188	1202.46558	-767.87592	624.54425	1084.72229	-750.83435	682.03845	980.36102	-734.43884	792.91895	882.48584	-769.70776	744.55835	858.52454	-731.08051	812.60437	811.89362	-725.41998	731.49756	968.5509	-1106.53516	709.9707	965.7959	-888.22418	568.995	981.35052	-1094.98206	561.97314	978.06567	-927.35919	720.22571	648.76257	-1168.72266	755.245	491.18991	-1138.06372	738.58276	233.73918	-1125.86633	740.87506	64.35682	-1078.70264	698.32373	51.41911	-1034.32739	885.1781	36.47703	-1069.56494	689.68597	621.08539	-843.61365	711.94714	495.74622	-858.45203	523.46075	324.37503	-861.75946	369.11469	225.32028	-906.77148	338.36087	251.34589	-952.89746	382.44098	64.97462	-914.37408	623.5672	1701.01733	-1012.4718	NaN	NaN	NaN	NaN	NaN	NaN	NaN	NaN	NaN	NaN	NaN	NaN	NaN	NaN	NaN	NaN	NaN	NaN	NaN	NaN	NaN	NaN	NaN	NaN	NaN	NaN	NaN	NaN	NaN	NaN
150	1.49	737.28046	1654.40637	-1059.58789	717.99408	1639.83887	-930.07288	600.63098	1615.74927	-1080.87988	583.35785	1606.16492	-953.02625	579.53827	1447.93799	-1025.9126	547.59253	1116.30701	-1015.42108	690.02722	1370.72803	-1014.93237	733.81757	1198.6095	-1014.70013	501.26669	1275.48999	-948.51935	645.63318	1400.57898	-1181.03381	626.8692	1200.15393	-1254.99304	605.52649	1089.56592	-1265.64063	610.48553	939.11536	-1285.19666	638.68921	815.86664	-1231.44128	591.62579	821.73065	-1284.36633	613.49792	733.14465	-1274.53589	630.63202	1402.95789	-859.02216	605.61859	1204.02722	-769.46185	632.46088	1085.65857	-752.50397	687.10504	979.64172	-736.0589	795.72211	878.53131	-770.43414	746.37341	856.11945	-732.10748	812.6441	807.26416	-726.11877	741.28619	969.88422	-1107.20276	720.74615	967.9527	-888.64923	579.03241	982.75647	-1095.67468	572.35986	979.85303	-928.08337	726.38196	649.34735	-1168.71106	759.99872	491.19141	-1138.61047	739.79956	233.88928	-1125.78833	740.78345	64.52148	-1078.45801	698.18042	51.45706	-1034.10193	885.25909	36.35203	-1069.51733	706.80505	623.71368	-845.81476	732.59729	499.09842	-861.35229	546.13446	326.29675	-863.34277	391.39514	227.71463	-906.91302	357.99026	251.89026	-952.54016	412.08438	68.2544	-913.52075	634.77081	1702.58118	-1013.20026	NaN	NaN	NaN	NaN	NaN	NaN	NaN	NaN	NaN	NaN	NaN	NaN	NaN	NaN	NaN	NaN	NaN	NaN	NaN	NaN	NaN	NaN	NaN	NaN	NaN	NaN	NaN	NaN	NaN	NaN
